<mxfile host="app.diagrams.net" modified="2023-10-06T17:09:24.682Z" agent="Mozilla/5.0 (Macintosh; Intel Mac OS X 10_15_7) AppleWebKit/537.36 (KHTML, like Gecko) Chrome/117.0.0.0 Safari/537.36" version="22.0.3" etag="MM67lKabnPpO2NjxWgdD" type="github">
  <diagram name="Page-1" id="AJgUdjHy7to7_H902LKF">
    <mxGraphModel>
      <root>
        <mxCell id="0" />
        <mxCell id="1" parent="0" />
      </root>
    </mxGraphModel>
  </diagram>
</mxfile>
